<svg width="16" height="10" viewBox="0 0 16 10" fill="none" xmlns="http://www.w3.org/2000/svg">
<path d="M7.81754 5.32583L2.94035 0.376903C2.6928 0.125443 2.39002 0 2.03206 0C1.67413 0 1.37149 0.12548 1.12397 0.376903L0.371213 1.14052C0.123761 1.39158 0 1.69886 0 2.06196C0 2.42506 0.123761 2.7322 0.371213 2.98366L6.90422 9.62313C7.15178 9.87438 7.45452 10 7.81252 10C8.17052 10 8.47301 9.87441 8.72067 9.62313L15.2537 2.98369C15.5012 2.73223 15.625 2.42513 15.625 2.062C15.625 1.69886 15.5012 1.39162 15.2537 1.14055L14.5011 0.376939C14.2536 0.12548 13.9526 3.52859e-05 13.5978 3.52859e-05C13.2433 3.52859e-05 12.9389 0.125516 12.6847 0.376939L7.81754 5.32583Z" fill="#656565"/>
</svg>
