<svg width="30" height="30" viewBox="0 0 30 30" fill="none" xmlns="http://www.w3.org/2000/svg">
<circle cx="15" cy="15" r="14.5" stroke="#D9D9D9"/>
<path d="M13.7393 15.3463L17.6985 11.387C17.8996 11.186 18 10.9402 18 10.6496C18 10.3591 17.8996 10.1134 17.6985 9.91244L17.0876 9.30135C16.8867 9.10047 16.6409 9 16.3504 9C16.06 9 15.8142 9.10047 15.6131 9.30135L10.3015 14.6049C10.1005 14.8058 10 15.0516 10 15.3422C10 15.6328 10.1005 15.8784 10.3015 16.0795L15.613 21.383C15.8142 21.5839 16.0599 21.6844 16.3504 21.6844C16.6409 21.6844 16.8867 21.5839 17.0876 21.383L17.6984 20.772C17.8996 20.5711 18 20.3267 18 20.0387C18 19.751 17.8996 19.5038 17.6984 19.2975L13.7393 15.3463Z" fill="#656565"/>
</svg>
