<svg width="113" height="20" viewBox="0 0 113 20" fill="none" xmlns="http://www.w3.org/2000/svg">
<path d="M0 19.7267V1.06606H12.258V4.31891H3.84617V8.76538H11.6273V12.0182H3.84617V16.4738H12.2935V19.7267H0Z" fill="url(#paint0_linear_3_268)"/>
<path d="M15.2448 19.7267V5.73121H18.8511V8.20046H19.011C19.2952 7.38041 19.769 6.73349 20.4322 6.25968C21.0954 5.78588 21.8889 5.54898 22.8127 5.54898C23.7484 5.54898 24.5448 5.78891 25.2022 6.26879C25.8595 6.7426 26.2977 7.38648 26.5168 8.20046H26.6589C26.9372 7.39863 27.4406 6.75778 28.1689 6.2779C28.9032 5.79195 29.7708 5.54898 30.7715 5.54898C32.0447 5.54898 33.0781 5.96507 33.8716 6.79727C34.671 7.62339 35.0707 8.79575 35.0707 10.3144V19.7267H31.2956V11.0797C31.2956 10.3022 31.0943 9.71906 30.6916 9.3303C30.2889 8.94153 29.7856 8.74715 29.1816 8.74715C28.4946 8.74715 27.9587 8.97191 27.5738 9.42141C27.1889 9.86484 26.9964 10.451 26.9964 11.18V19.7267H23.3279V10.9977C23.3279 10.3113 23.1355 9.76462 22.7506 9.35763C22.3716 8.95064 21.8712 8.74715 21.2494 8.74715C20.829 8.74715 20.45 8.85649 20.1124 9.07517C19.7808 9.28778 19.5173 9.58846 19.3219 9.97722C19.1265 10.3599 19.0288 10.8094 19.0288 11.3257V19.7267H15.2448Z" fill="url(#paint1_linear_3_268)"/>
<path d="M38.0597 19.7267V5.73121H41.8437V19.7267H38.0597ZM39.9606 3.92711C39.398 3.92711 38.9154 3.73576 38.5127 3.35307C38.116 2.96431 37.9176 2.49962 37.9176 1.959C37.9176 1.42445 38.116 0.965832 38.5127 0.583144C38.9154 0.194381 39.398 0 39.9606 0C40.5232 0 41.0028 0.194381 41.3996 0.583144C41.8023 0.965832 42.0036 1.42445 42.0036 1.959C42.0036 2.49962 41.8023 2.96431 41.3996 3.35307C41.0028 3.73576 40.5232 3.92711 39.9606 3.92711Z" fill="url(#paint2_linear_3_268)"/>
<path d="M48.6589 11.6355V19.7267H44.8749V5.73121H48.4812V8.20046H48.6411C48.9431 7.38648 49.4494 6.7426 50.16 6.26879C50.8707 5.78891 51.7323 5.54898 52.7449 5.54898C53.6924 5.54898 54.5184 5.76158 55.2231 6.18679C55.9278 6.612 56.4756 7.21944 56.8664 8.00911C57.2572 8.79271 57.4527 9.72817 57.4527 10.8155V19.7267H53.6687V11.508C53.6746 10.6515 53.4614 9.9833 53.0291 9.50342C52.5968 9.01746 52.0017 8.77449 51.2437 8.77449C50.7345 8.77449 50.2844 8.88686 49.8936 9.11162C49.5087 9.33637 49.2066 9.66439 48.9875 10.0957C48.7744 10.5209 48.6648 11.0342 48.6589 11.6355Z" fill="url(#paint3_linear_3_268)"/>
<path d="M66.6528 20C65.2494 20 64.0413 19.7084 63.0287 19.1253C62.022 18.5361 61.2463 17.7039 60.7015 16.6287C60.1567 15.5475 59.8843 14.2688 59.8843 12.7927C59.8843 11.3531 60.1567 10.0896 60.7015 9.00228C61.2463 7.91496 62.0131 7.06758 63.0021 6.46014C63.9969 5.8527 65.1635 5.54898 66.5018 5.54898C67.4019 5.54898 68.2398 5.6978 69.0156 5.99544C69.7973 6.28702 70.4783 6.72741 71.0586 7.31663C71.6448 7.90585 72.1008 8.64692 72.4265 9.53986C72.7522 10.4267 72.915 11.4655 72.915 12.656V13.7221H61.3943V11.3166H69.3531C69.3531 10.7578 69.2347 10.2627 68.9978 9.83144C68.7609 9.40015 68.4323 9.06302 68.0119 8.82005C67.5973 8.571 67.1147 8.44647 66.564 8.44647C65.9896 8.44647 65.4803 8.58314 65.0362 8.85649C64.598 9.12376 64.2545 9.48519 64.0058 9.94077C63.7571 10.3903 63.6298 10.8914 63.6238 11.4442V13.7312C63.6238 14.4237 63.7482 15.022 63.9969 15.5262C64.2515 16.0304 64.6098 16.4191 65.0717 16.6925C65.5336 16.9658 66.0814 17.1025 66.715 17.1025C67.1354 17.1025 67.5203 17.0418 67.8697 16.9203C68.2191 16.7988 68.5182 16.6166 68.7669 16.3736C69.0156 16.1306 69.2051 15.833 69.3354 15.4806L72.8351 15.7175C72.6574 16.5801 72.2933 17.3333 71.7425 17.9772C71.1977 18.615 70.4931 19.1131 69.6285 19.4715C68.7698 19.8238 67.7779 20 66.6528 20Z" fill="url(#paint4_linear_3_268)"/>
<path d="M79.1684 11.6355V19.7267H75.3844V5.73121H78.9907V8.20046H79.1506C79.4526 7.38648 79.9589 6.7426 80.6696 6.26879C81.3802 5.78891 82.2418 5.54898 83.2544 5.54898C84.2019 5.54898 85.028 5.76158 85.7326 6.18679C86.4373 6.612 86.9851 7.21944 87.3759 8.00911C87.7668 8.79271 87.9622 9.72817 87.9622 10.8155V19.7267H84.1782V11.508C84.1841 10.6515 83.9709 9.9833 83.5386 9.50342C83.1064 9.01746 82.5112 8.77449 81.7532 8.77449C81.244 8.77449 80.7939 8.88686 80.4031 9.11162C80.0182 9.33637 79.7162 9.66439 79.497 10.0957C79.2839 10.5209 79.1743 11.0342 79.1684 11.6355Z" fill="url(#paint5_linear_3_268)"/>
<path d="M98.2016 5.73121V8.64692H89.9852V5.73121H98.2016ZM91.8505 2.37813H95.6345V15.426C95.6345 15.7844 95.6878 16.0638 95.7944 16.2642C95.901 16.4586 96.049 16.5953 96.2385 16.6743C96.434 16.7532 96.659 16.7927 96.9136 16.7927C97.0913 16.7927 97.2689 16.7775 97.4466 16.7472C97.6242 16.7107 97.7604 16.6834 97.8552 16.6651L98.4503 19.5535C98.2608 19.6143 97.9943 19.6841 97.6509 19.7631C97.3074 19.8481 96.8899 19.8998 96.3984 19.918C95.4865 19.9544 94.687 19.8299 94.0001 19.5444C93.3191 19.2589 92.7891 18.8155 92.4101 18.2141C92.0311 17.6128 91.8446 16.8535 91.8505 15.9362V2.37813Z" fill="url(#paint6_linear_3_268)"/>
<path d="M106.738 20C105.334 20 104.126 19.7084 103.114 19.1253C102.107 18.5361 101.331 17.7039 100.786 16.6287C100.242 15.5475 99.9692 14.2688 99.9692 12.7927C99.9692 11.3531 100.242 10.0896 100.786 9.00228C101.331 7.91496 102.098 7.06758 103.087 6.46014C104.082 5.8527 105.248 5.54898 106.587 5.54898C107.487 5.54898 108.325 5.6978 109.101 5.99544C109.882 6.28702 110.563 6.72741 111.144 7.31663C111.73 7.90585 112.186 8.64692 112.511 9.53986C112.837 10.4267 113 11.4655 113 12.656V13.7221H101.479V11.3166H109.438C109.438 10.7578 109.32 10.2627 109.083 9.83144C108.846 9.40015 108.517 9.06302 108.097 8.82005C107.682 8.571 107.2 8.44647 106.649 8.44647C106.075 8.44647 105.565 8.58314 105.121 8.85649C104.683 9.12376 104.339 9.48519 104.091 9.94077C103.842 10.3903 103.715 10.8914 103.709 11.4442V13.7312C103.709 14.4237 103.833 15.022 104.082 15.5262C104.337 16.0304 104.695 16.4191 105.157 16.6925C105.619 16.9658 106.166 17.1025 106.8 17.1025C107.22 17.1025 107.605 17.0418 107.955 16.9203C108.304 16.7988 108.603 16.6166 108.852 16.3736C109.101 16.1306 109.29 15.833 109.42 15.4806L112.92 15.7175C112.742 16.5801 112.378 17.3333 111.827 17.9772C111.283 18.615 110.578 19.1131 109.713 19.4715C108.855 19.8238 107.863 20 106.738 20Z" fill="url(#paint7_linear_3_268)"/>
<defs>
<linearGradient id="paint0_linear_3_268" x1="0" y1="10" x2="113" y2="10" gradientUnits="userSpaceOnUse">
<stop stop-color="#0D0C39"/>
<stop offset="1" stop-color="#2C28C6"/>
</linearGradient>
<linearGradient id="paint1_linear_3_268" x1="0" y1="10" x2="113" y2="10" gradientUnits="userSpaceOnUse">
<stop stop-color="#0D0C39"/>
<stop offset="1" stop-color="#2C28C6"/>
</linearGradient>
<linearGradient id="paint2_linear_3_268" x1="0" y1="10" x2="113" y2="10" gradientUnits="userSpaceOnUse">
<stop stop-color="#0D0C39"/>
<stop offset="1" stop-color="#2C28C6"/>
</linearGradient>
<linearGradient id="paint3_linear_3_268" x1="0" y1="10" x2="113" y2="10" gradientUnits="userSpaceOnUse">
<stop stop-color="#0D0C39"/>
<stop offset="1" stop-color="#2C28C6"/>
</linearGradient>
<linearGradient id="paint4_linear_3_268" x1="0" y1="10" x2="113" y2="10" gradientUnits="userSpaceOnUse">
<stop stop-color="#0D0C39"/>
<stop offset="1" stop-color="#2C28C6"/>
</linearGradient>
<linearGradient id="paint5_linear_3_268" x1="0" y1="10" x2="113" y2="10" gradientUnits="userSpaceOnUse">
<stop stop-color="#0D0C39"/>
<stop offset="1" stop-color="#2C28C6"/>
</linearGradient>
<linearGradient id="paint6_linear_3_268" x1="0" y1="10" x2="113" y2="10" gradientUnits="userSpaceOnUse">
<stop stop-color="#0D0C39"/>
<stop offset="1" stop-color="#2C28C6"/>
</linearGradient>
<linearGradient id="paint7_linear_3_268" x1="0" y1="10" x2="113" y2="10" gradientUnits="userSpaceOnUse">
<stop stop-color="#0D0C39"/>
<stop offset="1" stop-color="#2C28C6"/>
</linearGradient>
</defs>
</svg>
