<svg width="25" height="26" viewBox="0 0 25 26" fill="none" xmlns="http://www.w3.org/2000/svg">
<path d="M24.6199 23.4036L18.457 17.0433C20.0416 15.1742 20.9098 12.8224 20.9098 10.3741C20.9098 4.65392 16.2196 0 10.4549 0C4.69015 0 0 4.65392 0 10.3741C0 16.0943 4.69015 20.7482 10.4549 20.7482C12.619 20.7482 14.6814 20.1005 16.4446 18.871L22.6544 25.2795C22.9139 25.547 23.263 25.6944 23.6371 25.6944C23.9912 25.6944 24.3272 25.5605 24.5822 25.3169C25.124 24.7996 25.1413 23.9417 24.6199 23.4036ZM10.4549 2.70629C14.7159 2.70629 18.1824 6.14599 18.1824 10.3741C18.1824 14.6023 14.7159 18.042 10.4549 18.042C6.19384 18.042 2.72736 14.6023 2.72736 10.3741C2.72736 6.14599 6.19384 2.70629 10.4549 2.70629Z" fill="#858585"/>
</svg>
